<?xml version="1.0" encoding="utf-8"?>
<!-- Generator: Adobe Illustrator 26.5.0, SVG Export Plug-In . SVG Version: 6.00 Build 0)  -->
<svg version="1.1" id="Layer_1" xmlns="http://www.w3.org/2000/svg" xmlns:xlink="http://www.w3.org/1999/xlink" x="0px" y="0px"
	 viewBox="0 0 80 80" style="enable-background:new 0 0 80 80;" xml:space="preserve">
<style type="text/css">
	.st0{fill:url(#SVGID_1_);}
	.st1{fill:url(#SVGID_00000011727981056969992580000004511167116660402050_);}
	.st2{fill:url(#SVGID_00000113327787787804810030000014954735875365405595_);}
	.st3{opacity:0.5;}
	.st4{fill:#C55A00;}
	.st5{opacity:0.5;fill:#C55A00;}
	.st6{opacity:0.2;fill:#FFFFFF;}
</style>
<g>
	<g>
		<linearGradient id="SVGID_1_" gradientUnits="userSpaceOnUse" x1="16.5201" y1="16.0372" x2="69.5413" y2="69.0585">
			<stop  offset="0" style="stop-color:#FFEE00"/>
			<stop  offset="1" style="stop-color:#FF9300"/>
		</linearGradient>
		<path class="st0" d="M41.57,76.52c-4.78,0-9.42-0.94-13.79-2.79c-4.22-1.78-8.01-4.34-11.26-7.59c-3.25-3.25-5.81-7.04-7.59-11.26
			c-1.85-4.37-2.79-9.01-2.79-13.79c0-4.78,0.94-9.42,2.79-13.79c1.78-4.22,4.34-8.01,7.59-11.26c3.25-3.25,7.04-5.81,11.26-7.59
			c4.37-1.85,9.01-2.79,13.79-2.79c4.78,0,9.42,0.94,13.79,2.79c4.22,1.78,8.01,4.34,11.26,7.59c3.25,3.25,5.81,7.04,7.59,11.26
			C76.06,31.67,77,36.31,77,41.09c0,4.78-0.94,9.42-2.79,13.79c-1.78,4.22-4.34,8.01-7.59,11.26c-3.25,3.25-7.04,5.81-11.26,7.59
			C50.99,75.58,46.35,76.52,41.57,76.52z"/>
		
			<linearGradient id="SVGID_00000013163394076312946840000006709882838936786828_" gradientUnits="userSpaceOnUse" x1="18.9004" y1="18.4176" x2="63.5579" y2="63.075">
			<stop  offset="0" style="stop-color:#FF9300"/>
			<stop  offset="1" style="stop-color:#FFEE00"/>
		</linearGradient>
		<path style="fill:url(#SVGID_00000013163394076312946840000006709882838936786828_);" d="M41.57,72.36
			c-4.22,0-8.32-0.83-12.17-2.46c-3.72-1.57-7.07-3.83-9.94-6.7c-2.87-2.87-5.13-6.22-6.7-9.94c-1.63-3.86-2.46-7.95-2.46-12.17
			c0-4.22,0.83-8.32,2.46-12.17c1.57-3.72,3.83-7.07,6.7-9.94c2.87-2.87,6.22-5.13,9.94-6.7c3.86-1.63,7.95-2.46,12.17-2.46
			s8.32,0.83,12.17,2.46c3.72,1.57,7.07,3.83,9.94,6.7c2.87,2.87,5.13,6.22,6.7,9.94c1.63,3.86,2.46,7.95,2.46,12.17
			c0,4.22-0.83,8.32-2.46,12.17c-1.57,3.72-3.83,7.07-6.7,9.94c-2.87,2.87-6.22,5.13-9.94,6.7C49.89,71.53,45.79,72.36,41.57,72.36z
			"/>
		
			<linearGradient id="SVGID_00000051382376470817182310000011444956859982295971_" gradientUnits="userSpaceOnUse" x1="20.4414" y1="19.9585" x2="63.2597" y2="62.7768">
			<stop  offset="0" style="stop-color:#FFEE00"/>
			<stop  offset="1" style="stop-color:#FF9300"/>
		</linearGradient>
		<circle style="fill:url(#SVGID_00000051382376470817182310000011444956859982295971_);" cx="41.57" cy="41.09" r="29.26"/>
		<g class="st3">
			<g>
				<g>
					<path class="st4" d="M35.4,65.26c-0.05,0.15-0.1,0.3-0.15,0.45C13.88,58.77,11.71,30.9,28.73,19.7
						c0.09,0.13,0.18,0.26,0.27,0.39C12.28,31.09,14.42,58.44,35.4,65.26z"/>
				</g>
				<g>
					<path class="st4" d="M30.36,59.49c0,0.01,1.41,1.11,2.22,2.49c0.81,1.39,0.57,2.69,0.55,2.69c0,0.02-2.02-1.02-2.73-2.52
						C29.71,60.68,30.38,59.49,30.36,59.49z"/>
				</g>
				<g>
					<path class="st4" d="M27.85,57.48c0,0.01,1.18,1.27,1.73,2.72c0.55,1.46,0.09,2.7,0.08,2.7c-0.01,0.02-1.75-1.25-2.19-2.8
						C27.03,58.56,27.86,57.48,27.85,57.48z"/>
				</g>
				<g>
					<path class="st4" d="M25.72,55.19c0,0.01,0.96,1.4,1.25,2.89c0.29,1.5-0.35,2.66-0.36,2.66c-0.01,0.02-1.49-1.44-1.67-3.03
						C24.76,56.14,25.74,55.2,25.72,55.19z"/>
				</g>
				<g>
					<path class="st4" d="M23.98,52.67c0,0.01,0.74,1.5,0.8,3c0.06,1.51-0.75,2.56-0.76,2.56c-0.01,0.02-1.22-1.61-1.17-3.19
						C22.9,53.48,24,52.67,23.98,52.67z"/>
				</g>
				<g>
					<path class="st4" d="M22.63,49.95c-0.01,0.01,0.52,1.57,0.36,3.06c-0.17,1.5-1.11,2.42-1.13,2.41
						c-0.01,0.01-0.96-1.74-0.69-3.29C21.45,50.6,22.64,49.96,22.63,49.95z"/>
				</g>
				<g>
					<path class="st4" d="M21.66,47.09c-0.01,0.01,0.3,1.62-0.06,3.06c-0.37,1.45-1.44,2.23-1.45,2.23
						c-0.01,0.01-0.7-1.84-0.22-3.33C20.4,47.58,21.67,47.1,21.66,47.09z"/>
				</g>
				<g>
					<path class="st4" d="M21.08,44.14c-0.01,0.01,0.09,1.64-0.47,3.02c-0.56,1.38-1.73,2.01-1.73,2.01
						c-0.01,0.01-0.45-1.91,0.23-3.32C19.77,44.46,21.09,44.15,21.08,44.14z"/>
				</g>
				<g>
					<path class="st4" d="M20.89,41.14c-0.01,0.01-0.13,1.64-0.85,2.93c-0.74,1.29-1.97,1.76-1.98,1.75
						c-0.01,0.01-0.19-1.95,0.66-3.25C19.55,41.28,20.9,41.15,20.89,41.14z"/>
				</g>
				<g>
					<path class="st4" d="M21.09,38.14c-0.01,0.01-0.33,1.61-1.22,2.79c-0.9,1.18-2.18,1.48-2.19,1.47
						c-0.01,0.01,0.06-1.95,1.07-3.13C19.74,38.1,21.09,38.15,21.09,38.14z"/>
				</g>
				<g>
					<path class="st4" d="M21.67,35.19c-0.01,0.01-0.54,1.55-1.57,2.6c-1.04,1.05-2.35,1.17-2.36,1.16
						c-0.01,0.01,0.31-1.93,1.46-2.96C20.34,34.97,21.67,35.2,21.67,35.19z"/>
				</g>
				<g>
					<path class="st4" d="M22.64,32.34c-0.01,0-0.75,1.47-1.91,2.38c-1.17,0.9-2.49,0.85-2.49,0.84c-0.01,0.01,0.56-1.87,1.84-2.75
						C21.35,31.93,22.64,32.35,22.64,32.34z"/>
				</g>
				<g>
					<path class="st4" d="M23.99,29.62c-0.01,0-0.95,1.37-2.22,2.11c-1.28,0.74-2.58,0.51-2.58,0.5c-0.02,0,0.8-1.79,2.2-2.49
						C22.76,29.05,23.99,29.63,23.99,29.62z"/>
				</g>
				<g>
					<path class="st4" d="M25.73,27.1c-0.01,0-1.15,1.24-2.52,1.81c-1.38,0.57-2.64,0.17-2.64,0.15c-0.02,0,1.05-1.67,2.54-2.19
						C24.59,26.36,25.74,27.11,25.73,27.1z"/>
				</g>
				<g>
					<path class="st4" d="M27.86,24.81c-0.02,0-1.35,1.09-2.8,1.47c-1.46,0.38-2.65-0.19-2.66-0.2c-0.02,0,1.29-1.53,2.86-1.84
						C26.83,23.92,27.86,24.82,27.86,24.81z"/>
				</g>
				<g>
					<path class="st4" d="M30.38,22.8c-0.02,0-1.54,0.91-3.06,1.1c-1.53,0.19-2.63-0.54-2.63-0.55c-0.02,0,1.52-1.36,3.17-1.46
						C29.48,21.78,30.38,22.81,30.38,22.8z"/>
				</g>
				<g>
					<path class="st4" d="M33.28,21.12c-0.02-0.01-1.74,0.71-3.3,0.7c-1.58-0.01-2.57-0.88-2.57-0.89c-0.02,0,1.76-1.15,3.45-1.05
						C32.53,19.99,33.28,21.13,33.28,21.12z"/>
				</g>
				<g>
					<path class="st4" d="M35.33,16.81c-0.01,0.01-1.45,1.32-3.24,2.21c-1.8,0.87-3.56,1.1-3.58,1.11
						c-0.01,0.01,0.85-1.65,2.82-2.61C33.3,16.55,35.35,16.81,35.33,16.81z"/>
				</g>
				<g>
					<path class="st4" d="M26.62,64.82c-0.02,0.01,2.07,1.22,3.94,1.12c1.86-0.1,2.57-1.28,2.57-1.26c-0.02,0.01-2.07-0.74-3.8-0.76
						C27.59,63.91,26.62,64.81,26.62,64.82z"/>
				</g>
				<g>
					<path class="st4" d="M23.38,62.23c-0.02,0,1.8,1.46,3.61,1.59c1.79,0.13,2.67-0.93,2.67-0.92c-0.02,0.01-1.84-0.98-3.51-1.22
						C24.46,61.46,23.38,62.22,23.38,62.23z"/>
				</g>
				<g>
					<path class="st4" d="M20.63,59.27c-0.02,0,1.53,1.67,3.26,2.02c1.71,0.36,2.72-0.57,2.72-0.56c-0.02,0-1.62-1.19-3.2-1.64
						C21.81,58.66,20.64,59.26,20.63,59.27z"/>
				</g>
				<g>
					<path class="st4" d="M18.39,56.01c-0.02,0,1.26,1.84,2.89,2.41c1.61,0.57,2.74-0.21,2.74-0.2c-0.02,0-1.39-1.38-2.88-2.02
						C19.63,55.56,18.39,56,18.39,56.01z"/>
				</g>
				<g>
					<path class="st4" d="M16.64,52.51c-0.02,0,0.99,1.98,2.5,2.75c1.5,0.78,2.72,0.15,2.72,0.16c-0.02,0-1.16-1.53-2.53-2.37
						C17.94,52.23,16.64,52.5,16.64,52.51z"/>
				</g>
				<g>
					<path class="st4" d="M15.39,48.82c-0.02-0.01,0.71,2.08,2.1,3.05c1.37,0.96,2.66,0.51,2.66,0.52c-0.01,0-0.92-1.66-2.17-2.67
						C16.71,48.72,15.4,48.81,15.39,48.82z"/>
				</g>
				<g>
					<path class="st4" d="M14.65,45.01c-0.02-0.01,0.43,2.15,1.68,3.29c1.23,1.13,2.56,0.86,2.56,0.87c-0.01,0-0.69-1.76-1.79-2.92
						C15.97,45.08,14.65,45,14.65,45.01z"/>
				</g>
				<g>
					<path class="st4" d="M14.4,41.14c-0.01-0.01,0.15,2.19,1.24,3.48c1.07,1.28,2.43,1.19,2.42,1.2c-0.01-0.01-0.45-1.83-1.4-3.13
						C15.7,41.39,14.4,41.13,14.4,41.14z"/>
				</g>
				<g>
					<path class="st4" d="M14.65,37.27c-0.01-0.01-0.13,2.19,0.78,3.62c0.9,1.42,2.25,1.5,2.25,1.51c-0.01-0.01-0.21-1.87-0.98-3.29
						C15.91,37.69,14.66,37.26,14.65,37.27z"/>
				</g>
				<g>
					<path class="st4" d="M15.4,33.46c-0.01-0.01-0.42,2.16,0.3,3.7c0.71,1.53,2.04,1.79,2.03,1.8c-0.01-0.01,0.03-1.89-0.55-3.39
						C16.59,34.05,15.41,33.45,15.4,33.46z"/>
				</g>
				<g>
					<path class="st4" d="M16.65,29.77c-0.01-0.01-0.7,2.09-0.19,3.72c0.5,1.61,1.79,2.05,1.78,2.06c-0.01-0.01,0.28-1.87-0.1-3.45
						C17.75,30.52,16.66,29.77,16.65,29.77z"/>
				</g>
				<g>
					<path class="st4" d="M18.4,26.27c-0.01-0.02-0.99,1.99-0.7,3.68c0.28,1.67,1.5,2.28,1.49,2.29c-0.01-0.01,0.52-1.82,0.37-3.44
						C19.39,27.16,18.41,26.27,18.4,26.27z"/>
				</g>
				<g>
					<path class="st4" d="M20.65,23.01c-0.01-0.02-1.28,1.86-1.23,3.57c0.04,1.7,1.17,2.47,1.16,2.48
						c-0.01-0.01,0.77-1.75,0.85-3.38C21.5,24.03,20.66,23.01,20.65,23.01z"/>
				</g>
				<g>
					<path class="st4" d="M23.39,20.05c-0.01-0.02-1.58,1.68-1.78,3.4c-0.21,1.7,0.81,2.62,0.79,2.63
						c-0.01-0.01,1.02-1.64,1.36-3.26C24.09,21.19,23.41,20.05,23.39,20.05z"/>
				</g>
				<g>
					<path class="st4" d="M26.64,17.46c-0.01-0.02-1.87,1.47-2.34,3.16c-0.48,1.67,0.4,2.73,0.39,2.73c0-0.01,1.28-1.5,1.88-3.08
						C27.16,18.69,26.66,17.46,26.64,17.46z"/>
				</g>
				<g>
					<path class="st4" d="M30.39,15.3c-0.01-0.02-2.17,1.23-2.92,2.85c-0.76,1.61-0.04,2.78-0.06,2.77c0-0.01,1.53-1.33,2.42-2.83
						C30.7,16.59,30.4,15.3,30.39,15.3z"/>
				</g>
			</g>
			<g>
				<g>
					<path class="st4" d="M47.74,65.26c0.05,0.15,0.1,0.3,0.15,0.45c21.37-6.95,23.55-34.82,6.52-46.02
						c-0.09,0.13-0.18,0.26-0.27,0.39C70.86,31.09,68.73,58.44,47.74,65.26z"/>
				</g>
				<g>
					<path class="st4" d="M52.78,59.49c0,0.01-1.41,1.11-2.22,2.49c-0.81,1.39-0.57,2.69-0.55,2.69c0,0.02,2.02-1.02,2.73-2.52
						C53.44,60.68,52.76,59.49,52.78,59.49z"/>
				</g>
				<g>
					<path class="st4" d="M55.29,57.48c0,0.01-1.18,1.27-1.73,2.72c-0.55,1.46-0.09,2.7-0.08,2.7c0.01,0.02,1.75-1.25,2.19-2.8
						C56.12,58.56,55.28,57.48,55.29,57.48z"/>
				</g>
				<g>
					<path class="st4" d="M57.42,55.19c0,0.01-0.96,1.4-1.25,2.89c-0.29,1.5,0.35,2.66,0.36,2.66c0.01,0.02,1.49-1.44,1.67-3.03
						C58.39,56.14,57.41,55.2,57.42,55.19z"/>
				</g>
				<g>
					<path class="st4" d="M59.16,52.67c0,0.01-0.74,1.5-0.8,3c-0.06,1.51,0.75,2.56,0.76,2.56c0.01,0.02,1.22-1.61,1.17-3.19
						C60.25,53.48,59.15,52.67,59.16,52.67z"/>
				</g>
				<g>
					<path class="st4" d="M60.51,49.95c0.01,0.01-0.52,1.57-0.36,3.06c0.17,1.5,1.11,2.42,1.13,2.41c0.01,0.01,0.96-1.74,0.69-3.29
						C61.7,50.6,60.5,49.96,60.51,49.95z"/>
				</g>
				<g>
					<path class="st4" d="M61.48,47.09c0.01,0.01-0.3,1.62,0.06,3.06c0.37,1.45,1.44,2.23,1.45,2.23c0.01,0.01,0.7-1.84,0.22-3.33
						C62.74,47.58,61.47,47.1,61.48,47.09z"/>
				</g>
				<g>
					<path class="st4" d="M62.06,44.14c0.01,0.01-0.09,1.64,0.47,3.02c0.56,1.38,1.73,2.01,1.73,2.01c0.01,0.01,0.45-1.91-0.23-3.32
						C63.37,44.46,62.05,44.15,62.06,44.14z"/>
				</g>
				<g>
					<path class="st4" d="M62.25,41.14c0.01,0.01,0.13,1.64,0.85,2.93c0.74,1.29,1.97,1.76,1.98,1.75c0.01,0.01,0.19-1.95-0.66-3.25
						C63.59,41.28,62.24,41.15,62.25,41.14z"/>
				</g>
				<g>
					<path class="st4" d="M62.06,38.14c0.01,0.01,0.33,1.61,1.22,2.79c0.9,1.18,2.18,1.48,2.19,1.47c0.01,0.01-0.06-1.95-1.07-3.13
						C63.4,38.1,62.05,38.15,62.06,38.14z"/>
				</g>
				<g>
					<path class="st4" d="M61.48,35.19c0.01,0.01,0.54,1.55,1.57,2.6c1.04,1.05,2.35,1.17,2.36,1.16c0.01,0.01-0.31-1.93-1.46-2.96
						C62.8,34.97,61.47,35.2,61.48,35.19z"/>
				</g>
				<g>
					<path class="st4" d="M60.51,32.34c0.01,0,0.75,1.47,1.91,2.38c1.17,0.9,2.49,0.85,2.49,0.84c0.01,0.01-0.56-1.87-1.84-2.75
						C61.8,31.93,60.5,32.35,60.51,32.34z"/>
				</g>
				<g>
					<path class="st4" d="M59.15,29.62c0.01,0,0.95,1.37,2.22,2.11c1.28,0.74,2.58,0.51,2.58,0.5c0.02,0-0.8-1.79-2.2-2.49
						C60.38,29.05,59.15,29.63,59.15,29.62z"/>
				</g>
				<g>
					<path class="st4" d="M57.41,27.1c0.01,0,1.15,1.24,2.52,1.81c1.38,0.57,2.64,0.17,2.64,0.15c0.02,0-1.05-1.67-2.54-2.19
						C58.55,26.36,57.41,27.11,57.41,27.1z"/>
				</g>
				<g>
					<path class="st4" d="M55.28,24.81c0.02,0,1.35,1.09,2.8,1.47c1.46,0.38,2.65-0.19,2.66-0.2c0.02,0-1.29-1.53-2.86-1.84
						C56.31,23.92,55.28,24.82,55.28,24.81z"/>
				</g>
				<g>
					<path class="st4" d="M52.76,22.8c0.02,0,1.54,0.91,3.06,1.1c1.53,0.19,2.63-0.54,2.63-0.55c0.02,0-1.52-1.36-3.17-1.46
						C53.67,21.78,52.77,22.81,52.76,22.8z"/>
				</g>
				<g>
					<path class="st4" d="M49.86,21.12c0.02-0.01,1.74,0.71,3.3,0.7c1.58-0.01,2.57-0.88,2.57-0.89c0.02,0-1.76-1.15-3.45-1.05
						C50.61,19.99,49.86,21.13,49.86,21.12z"/>
				</g>
				<g>
					<path class="st4" d="M47.82,16.81c0.01,0.01,1.45,1.32,3.24,2.21c1.8,0.87,3.56,1.1,3.58,1.11c0.01,0.01-0.85-1.65-2.82-2.61
						C49.84,16.55,47.8,16.81,47.82,16.81z"/>
				</g>
				<g>
					<path class="st4" d="M56.52,64.82c0.02,0.01-2.07,1.22-3.94,1.12c-1.86-0.1-2.57-1.28-2.57-1.26c0.02,0.01,2.07-0.74,3.8-0.76
						C55.55,63.91,56.52,64.81,56.52,64.82z"/>
				</g>
				<g>
					<path class="st4" d="M59.76,62.23c0.02,0-1.8,1.46-3.61,1.59c-1.79,0.13-2.67-0.93-2.67-0.92c0.02,0.01,1.84-0.98,3.51-1.22
						C58.68,61.46,59.76,62.22,59.76,62.23z"/>
				</g>
				<g>
					<path class="st4" d="M62.51,59.27c0.02,0-1.53,1.67-3.26,2.02c-1.71,0.36-2.72-0.57-2.72-0.56c0.02,0,1.62-1.19,3.2-1.64
						C61.33,58.66,62.51,59.26,62.51,59.27z"/>
				</g>
				<g>
					<path class="st4" d="M64.76,56.01c0.02,0-1.26,1.84-2.89,2.41c-1.61,0.57-2.74-0.21-2.74-0.2c0.02,0,1.39-1.38,2.88-2.02
						C63.51,55.56,64.75,56,64.76,56.01z"/>
				</g>
				<g>
					<path class="st4" d="M66.5,52.51c0.02,0-0.99,1.98-2.5,2.75c-1.5,0.78-2.72,0.15-2.72,0.16c0.02,0,1.16-1.53,2.53-2.37
						C65.21,52.23,66.5,52.5,66.5,52.51z"/>
				</g>
				<g>
					<path class="st4" d="M67.75,48.82c0.02-0.01-0.71,2.08-2.1,3.05c-1.37,0.96-2.66,0.51-2.66,0.52c0.01,0,0.92-1.66,2.17-2.67
						C66.43,48.72,67.74,48.81,67.75,48.82z"/>
				</g>
				<g>
					<path class="st4" d="M68.5,45.01c0.02-0.01-0.43,2.15-1.68,3.29c-1.23,1.13-2.56,0.86-2.56,0.87c0.01,0,0.69-1.76,1.79-2.92
						C67.18,45.08,68.49,45,68.5,45.01z"/>
				</g>
				<g>
					<path class="st4" d="M68.75,41.14c0.01-0.01-0.15,2.19-1.24,3.48c-1.07,1.28-2.43,1.19-2.42,1.2c0.01-0.01,0.45-1.83,1.4-3.13
						C67.44,41.39,68.74,41.13,68.75,41.14z"/>
				</g>
				<g>
					<path class="st4" d="M68.49,37.27c0.01-0.01,0.13,2.19-0.78,3.62c-0.9,1.42-2.25,1.5-2.25,1.51c0.01-0.01,0.21-1.87,0.98-3.29
						C67.24,37.69,68.49,37.26,68.49,37.27z"/>
				</g>
				<g>
					<path class="st4" d="M67.74,33.46c0.01-0.01,0.42,2.16-0.3,3.7c-0.71,1.53-2.04,1.79-2.03,1.8c0.01-0.01-0.03-1.89,0.55-3.39
						C66.55,34.05,67.74,33.45,67.74,33.46z"/>
				</g>
				<g>
					<path class="st4" d="M66.49,29.77c0.01-0.01,0.7,2.09,0.19,3.72c-0.5,1.61-1.79,2.05-1.78,2.06c0.01-0.01-0.28-1.87,0.1-3.45
						C65.39,30.52,66.48,29.77,66.49,29.77z"/>
				</g>
				<g>
					<path class="st4" d="M64.75,26.27c0.01-0.02,0.99,1.99,0.7,3.68c-0.28,1.67-1.5,2.28-1.49,2.29c0.01-0.01-0.52-1.82-0.37-3.44
						C63.76,27.16,64.73,26.27,64.75,26.27z"/>
				</g>
				<g>
					<path class="st4" d="M62.5,23.01c0.01-0.02,1.28,1.86,1.23,3.57c-0.04,1.7-1.17,2.47-1.16,2.48c0.01-0.01-0.77-1.75-0.85-3.38
						C61.64,24.03,62.48,23.01,62.5,23.01z"/>
				</g>
				<g>
					<path class="st4" d="M59.75,20.05c0.01-0.02,1.58,1.68,1.78,3.4c0.21,1.7-0.81,2.62-0.79,2.63c0.01-0.01-1.02-1.64-1.36-3.26
						C59.05,21.19,59.74,20.05,59.75,20.05z"/>
				</g>
				<g>
					<path class="st4" d="M56.5,17.46c0.01-0.02,1.87,1.47,2.34,3.16c0.48,1.67-0.4,2.73-0.39,2.73c0-0.01-1.28-1.5-1.88-3.08
						C55.99,18.69,56.49,17.46,56.5,17.46z"/>
				</g>
				<g>
					<path class="st4" d="M52.76,15.3c0.01-0.02,2.17,1.23,2.92,2.85c0.76,1.61,0.04,2.78,0.06,2.77c0-0.01-1.53-1.33-2.42-2.83
						C52.44,16.59,52.74,15.3,52.76,15.3z"/>
				</g>
			</g>
		</g>
		<path class="st5" d="M42.01,13.87l0.62,1.92h2.02c0.44,0,0.63,0.57,0.27,0.83l-1.63,1.19l0.62,1.92c0.14,0.42-0.34,0.77-0.7,0.51
			l-1.63-1.19l-1.63,1.19c-0.36,0.26-0.84-0.09-0.7-0.51l0.62-1.92l-1.63-1.19c-0.36-0.26-0.17-0.83,0.27-0.83h2.02l0.62-1.92
			C41.27,13.45,41.87,13.45,42.01,13.87z"/>
		<path class="st5" d="M37.91,61.93c0.16,0,0.29,0.13,0.29,0.29c0,0.05-0.01,0.09-0.03,0.13l2.54,1.48l0.77-2.48
			c-0.12-0.04-0.2-0.15-0.2-0.28c0-0.16,0.13-0.29,0.29-0.29c0.16,0,0.29,0.13,0.29,0.29c0,0.13-0.09,0.24-0.2,0.28l0.77,2.48
			l2.54-1.48c-0.02-0.04-0.03-0.09-0.03-0.13c0-0.16,0.13-0.29,0.29-0.29c0.16,0,0.29,0.13,0.29,0.29c0,0.16-0.13,0.29-0.29,0.29
			c-0.03,0-0.06-0.01-0.09-0.02l-1.45,4.53h-2.12h-2.12L38,62.51c-0.03,0.01-0.06,0.02-0.09,0.02c-0.16,0-0.29-0.13-0.29-0.29
			C37.62,62.07,37.75,61.93,37.91,61.93z"/>
		<g class="st3">
			<path class="st4" d="M33.15,39.34H29.7v-1.2c0-0.76-0.03-1.23-0.1-1.42c-0.07-0.19-0.22-0.29-0.47-0.29
				c-0.21,0-0.36,0.08-0.43,0.25c-0.08,0.16-0.11,0.58-0.11,1.26v6.36c0,0.6,0.04,0.99,0.11,1.18c0.08,0.19,0.23,0.28,0.46,0.28
				c0.25,0,0.42-0.11,0.51-0.32c0.09-0.21,0.14-0.63,0.14-1.24v-1.57h-0.7V40.6h4.04v7.12h-2.17l-0.32-0.95
				c-0.23,0.41-0.53,0.72-0.89,0.92C29.41,47.89,28.99,48,28.5,48c-0.58,0-1.12-0.14-1.63-0.42c-0.51-0.28-0.89-0.63-1.15-1.04
				c-0.26-0.41-0.43-0.85-0.49-1.31c-0.07-0.46-0.1-1.14-0.1-2.05v-3.94c0-1.27,0.07-2.19,0.2-2.76c0.14-0.57,0.53-1.1,1.18-1.58
				c0.65-0.48,1.48-0.72,2.51-0.72c1.01,0,1.85,0.21,2.51,0.62c0.67,0.41,1.1,0.91,1.3,1.48c0.2,0.57,0.3,1.4,0.3,2.49V39.34z"/>
			<path class="st4" d="M42.36,42.22c0,1.33-0.03,2.28-0.09,2.83c-0.06,0.55-0.26,1.06-0.59,1.52c-0.33,0.46-0.78,0.81-1.34,1.06
				C39.77,47.87,39.12,48,38.37,48c-0.71,0-1.35-0.12-1.91-0.35c-0.57-0.23-1.02-0.58-1.36-1.04c-0.34-0.46-0.55-0.97-0.61-1.51
				c-0.07-0.55-0.1-1.5-0.1-2.87v-2.27c0-1.33,0.03-2.28,0.09-2.83c0.06-0.55,0.26-1.06,0.59-1.52c0.33-0.46,0.78-0.81,1.34-1.06
				c0.56-0.25,1.22-0.37,1.97-0.37c0.71,0,1.35,0.12,1.91,0.35c0.57,0.23,1.02,0.58,1.36,1.04c0.34,0.46,0.55,0.97,0.61,1.51
				c0.07,0.55,0.1,1.5,0.1,2.87V42.22z M38.91,37.87c0-0.62-0.03-1.01-0.1-1.18c-0.07-0.17-0.21-0.26-0.42-0.26
				c-0.18,0-0.32,0.07-0.41,0.21c-0.1,0.14-0.14,0.55-0.14,1.23v6.19c0,0.77,0.03,1.24,0.09,1.42c0.06,0.18,0.21,0.27,0.44,0.27
				c0.23,0,0.38-0.1,0.45-0.31c0.07-0.21,0.1-0.7,0.1-1.48V37.87z"/>
			<path class="st4" d="M47.09,34.46v10.6h2.1v2.65h-5.54V34.46H47.09z"/>
			<path class="st4" d="M50.02,34.46h2.58c1.67,0,2.79,0.08,3.38,0.23c0.59,0.15,1.03,0.4,1.34,0.75c0.31,0.35,0.5,0.74,0.57,1.17
				c0.08,0.43,0.11,1.27,0.11,2.53v4.64c0,1.19-0.06,1.99-0.17,2.39c-0.11,0.4-0.31,0.72-0.59,0.94c-0.28,0.23-0.62,0.38-1.03,0.47
				c-0.41,0.09-1.03,0.14-1.85,0.14h-4.35V34.46z M53.47,36.73v8.72c0.5,0,0.8-0.1,0.92-0.3c0.11-0.2,0.17-0.74,0.17-1.63v-5.15
				c0-0.6-0.02-0.99-0.06-1.15c-0.04-0.17-0.13-0.29-0.26-0.37C54.1,36.77,53.85,36.73,53.47,36.73z"/>
		</g>
		<path class="st6" d="M63.21,13.03c-2.4-1.86-5.03-3.39-7.85-4.59c-4.37-1.85-9.01-2.79-13.79-2.79c-4.78,0-9.42,0.94-13.79,2.79
			c-4.22,1.78-8.01,4.34-11.26,7.59c-3.25,3.25-5.81,7.04-7.59,11.26c-1.85,4.37-2.79,9.01-2.79,13.79c0,4.78,0.94,9.42,2.79,13.79
			c0.39,0.93,0.82,1.83,1.29,2.72C36.52,56.99,58.28,38.03,63.21,13.03z"/>
	</g>
</g>
</svg>
